{"glyphs":{"0":{"ha":612,"x_min":27,"x_max":583,"o":"m 56 1000 q 556 1000 222 1000 q 575 991 567 1000 q 583 972 583 983 q 583 27 583 658 q 575 8 583 16 q 556 0 567 0 q 56 0 389 0 q 35 8 45 0 q 27 27 27 16 q 27 972 27 343 q 35 991 27 983 q 56 1000 45 1000 m 138 861 q 138 278 138 667 q 142 266 138 266 q 151 275 146 264 q 411 864 237 471 q 411 882 415 875 q 395 888 406 888 q 167 888 319 888 q 146 880 155 888 q 138 861 138 872 m 217 111 q 217 110 217 111 q 445 110 293 110 q 464 118 456 110 q 472 137 472 126 q 472 720 472 332 q 469 734 472 732 q 461 724 465 734 q 199 136 374 528 q 201 118 195 126 q 217 111 205 111 z "},"1":{"ha":612,"x_min":27,"x_max":583,"o":"m 361 972 q 361 138 361 694 q 369 119 361 127 q 389 111 377 111 q 556 111 445 111 q 575 103 567 111 q 583 83 583 95 q 583 27 583 65 q 575 8 583 16 q 556 0 567 0 q 56 0 389 0 q 35 8 45 0 q 27 27 27 16 q 27 83 27 46 q 35 103 27 95 q 56 111 45 111 q 222 111 111 111 q 241 119 233 111 q 250 138 250 127 q 250 861 250 380 q 241 880 250 872 q 222 888 233 888 q 56 888 167 888 q 35 897 45 888 q 27 917 27 905 q 27 972 27 935 q 35 991 27 983 q 56 1000 45 1000 q 334 1000 148 1000 q 353 991 345 1000 q 361 972 361 983 z "},"2":{"ha":610,"x_min":27,"x_max":583,"o":"m 445 888 q 56 888 315 888 q 35 897 45 888 q 27 917 27 905 q 27 972 27 935 q 35 991 27 983 q 56 1000 45 1000 q 556 1000 222 1000 q 575 991 567 1000 q 583 972 583 983 q 583 472 583 806 q 575 453 583 461 q 556 445 567 445 q 167 445 426 445 q 146 437 155 445 q 138 416 138 429 q 138 138 138 324 q 146 119 138 127 q 167 111 155 111 q 556 111 296 111 q 575 103 567 111 q 583 83 583 95 q 583 27 583 65 q 575 8 583 16 q 556 0 567 0 q 56 0 389 0 q 35 8 45 0 q 27 27 27 16 q 27 528 27 194 q 35 548 27 540 q 56 556 45 556 q 445 556 186 556 q 464 564 456 556 q 472 583 472 572 q 472 861 472 675 q 464 880 472 872 q 445 888 456 888 z "},"3":{"ha":610,"x_min":27,"x_max":583,"o":"m 56 111 q 445 111 186 111 q 464 119 456 111 q 472 138 472 127 q 472 416 472 232 q 464 437 472 429 q 445 445 456 445 q 56 445 315 445 q 35 453 45 445 q 27 472 27 461 q 27 528 27 491 q 35 548 27 540 q 56 556 45 556 q 445 556 186 556 q 464 564 456 556 q 472 583 472 572 q 472 861 472 675 q 464 880 472 872 q 445 888 456 888 q 56 888 315 888 q 35 897 45 888 q 27 917 27 905 q 27 972 27 935 q 35 991 27 983 q 56 1000 45 1000 q 556 1000 222 1000 q 575 991 567 1000 q 583 972 583 983 q 583 27 583 658 q 575 8 583 16 q 556 0 567 0 q 56 0 389 0 q 35 8 45 0 q 27 27 27 16 q 27 83 27 46 q 35 103 27 95 q 56 111 45 111 z "},"4":{"ha":610,"x_min":27,"x_max":583,"o":"m 500 1000 q 556 1000 518 1000 q 575 991 567 1000 q 583 972 583 983 q 583 27 583 658 q 575 8 583 16 q 556 0 567 0 q 500 0 537 0 q 480 8 488 0 q 472 27 472 16 q 472 416 472 157 q 464 437 472 429 q 445 445 456 445 q 56 445 315 445 q 35 453 45 445 q 27 472 27 461 q 27 972 27 639 q 35 991 27 983 q 56 1000 45 1000 q 111 1000 75 1000 q 130 991 122 1000 q 138 972 138 983 q 138 583 138 842 q 146 564 138 572 q 167 556 155 556 q 445 556 259 556 q 464 564 456 556 q 472 583 472 572 q 472 972 472 713 q 480 991 472 983 q 500 1000 488 1000 z "},"5":{"ha":612,"x_min":27,"x_max":583,"o":"m 556 888 q 167 888 426 888 q 146 880 155 888 q 138 861 138 872 q 138 583 138 769 q 146 564 138 572 q 167 556 155 556 q 556 556 296 556 q 575 548 567 556 q 583 528 583 540 q 583 27 583 361 q 575 8 583 16 q 556 0 567 0 q 56 0 389 0 q 35 8 45 0 q 27 27 27 16 q 27 83 27 46 q 35 103 27 95 q 56 111 45 111 q 445 111 186 111 q 464 119 456 111 q 472 138 472 127 q 472 416 472 232 q 464 437 472 429 q 445 445 456 445 q 56 445 315 445 q 35 453 45 445 q 27 472 27 461 q 27 972 27 639 q 35 991 27 983 q 56 1000 45 1000 q 556 1000 222 1000 q 575 991 567 1000 q 583 972 583 983 q 583 917 583 954 q 575 897 583 905 q 556 888 567 888 z "},"6":{"ha":610,"x_min":27,"x_max":583,"o":"m 556 888 q 167 888 426 888 q 146 880 155 888 q 138 861 138 872 q 138 583 138 769 q 146 564 138 572 q 167 556 155 556 q 556 556 296 556 q 575 548 567 556 q 583 528 583 540 q 583 27 583 361 q 575 8 583 16 q 556 0 567 0 q 56 0 389 0 q 35 8 45 0 q 27 27 27 16 q 27 972 27 343 q 35 991 27 983 q 56 1000 45 1000 q 556 1000 222 1000 q 575 991 567 1000 q 583 972 583 983 q 583 917 583 954 q 575 897 583 905 q 556 888 567 888 m 445 445 q 167 445 351 445 q 146 437 155 445 q 138 416 138 429 q 138 138 138 324 q 146 119 138 127 q 167 111 155 111 q 445 111 259 111 q 464 119 456 111 q 472 138 472 127 q 472 416 472 232 q 464 437 472 429 q 445 445 456 445 z "},"7":{"ha":612,"x_min":27,"x_max":582,"o":"m 56 1000 q 555 1000 221 1000 q 574 991 566 1000 q 582 972 582 983 q 582 917 582 954 q 579 890 582 905 q 571 864 576 875 q 178 24 439 585 q 161 7 174 15 q 138 0 151 0 q 56 0 111 0 q 39 7 45 0 q 39 24 35 15 q 435 869 171 307 q 434 882 438 876 q 422 888 430 888 q 56 888 300 888 q 35 897 45 888 q 27 917 27 905 q 27 972 27 935 q 35 991 27 983 q 56 1000 45 1000 z "},"8":{"ha":640,"x_min":27,"x_max":583,"o":"m 56 1000 q 556 1000 222 1000 q 575 991 567 1000 q 583 972 583 983 q 583 27 583 658 q 575 8 583 16 q 556 0 567 0 q 56 0 389 0 q 35 8 45 0 q 27 27 27 16 q 27 972 27 343 q 35 991 27 983 q 56 1000 45 1000 m 472 138 q 472 416 472 232 q 464 437 472 429 q 445 445 456 445 q 167 445 351 445 q 146 437 155 445 q 138 416 138 429 q 138 138 138 324 q 146 119 138 127 q 167 111 155 111 q 445 111 259 111 q 464 119 456 111 q 472 138 472 127 m 472 583 q 472 861 472 675 q 464 880 472 872 q 445 888 456 888 q 167 888 351 888 q 146 880 155 888 q 138 861 138 872 q 138 583 138 769 q 146 564 138 572 q 167 556 155 556 q 445 556 259 556 q 464 564 456 556 q 472 583 472 572 z "},"9":{"ha":610,"x_min":27,"x_max":583,"o":"m 56 111 q 445 111 186 111 q 464 119 456 111 q 472 138 472 127 q 472 416 472 232 q 464 437 472 429 q 445 445 456 445 q 56 445 315 445 q 35 453 45 445 q 27 472 27 461 q 27 972 27 639 q 35 991 27 983 q 56 1000 45 1000 q 556 1000 222 1000 q 575 991 567 1000 q 583 972 583 983 q 583 27 583 658 q 575 8 583 16 q 556 0 567 0 q 56 0 389 0 q 35 8 45 0 q 27 27 27 16 q 27 83 27 46 q 35 103 27 95 q 56 111 45 111 m 167 556 q 445 556 259 556 q 464 564 456 556 q 472 583 472 572 q 472 861 472 675 q 464 880 472 872 q 445 888 456 888 q 167 888 351 888 q 146 880 155 888 q 138 861 138 872 q 138 583 138 769 q 146 564 138 572 q 167 556 155 556 z "},"\u0000":{"ha":0,"x_min":0,"x_max":0,"o":""},"\r":{"ha":0,"x_min":0,"x_max":0,"o":""}," ":{"ha":222,"x_min":0,"x_max":0,"o":""},"!":{"ha":167,"x_min":27,"x_max":138,"o":"m 27 27 q 27 83 27 46 q 35 103 27 95 q 56 111 45 111 q 111 111 75 111 q 130 103 122 111 q 138 83 138 95 q 138 27 138 65 q 130 8 138 16 q 111 0 122 0 q 56 0 92 0 q 35 8 45 0 q 27 27 27 16 m 56 1000 q 111 1000 75 1000 q 130 991 122 1000 q 138 972 138 983 q 138 250 138 731 q 130 231 138 239 q 111 222 122 222 q 56 222 92 222 q 35 231 45 222 q 27 250 27 239 q 27 972 27 491 q 35 991 27 983 q 56 1000 45 1000 z "},"\"":{"ha":305,"x_min":28,"x_max":278,"o":"m 111 694 q 56 694 94 694 q 37 703 45 694 q 28 722 28 711 q 28 972 28 806 q 37 991 28 983 q 56 1000 45 1000 q 111 1000 75 1000 q 132 991 123 1000 q 140 972 140 983 q 140 722 140 888 q 132 703 140 711 q 111 694 123 694 m 251 694 q 195 694 232 694 q 175 703 183 694 q 167 722 167 711 q 167 972 167 806 q 175 991 167 983 q 195 1000 183 1000 q 251 1000 213 1000 q 270 991 262 1000 q 278 972 278 983 q 278 722 278 888 q 270 703 278 711 q 251 694 262 694 z "},"#":{"ha":1055,"x_min":27,"x_max":1028,"o":"m 1000 583 q 741 583 913 583 q 720 575 728 583 q 708 556 711 567 q 693 445 703 518 q 699 425 690 433 q 716 416 705 416 q 1000 416 811 416 q 1020 408 1012 416 q 1028 389 1028 400 q 1028 334 1028 370 q 1020 313 1028 321 q 1000 305 1012 305 q 701 305 901 305 q 681 297 690 305 q 670 278 671 289 q 635 27 658 194 q 624 8 632 16 q 602 0 614 0 q 547 0 585 0 q 529 8 536 0 q 524 27 522 16 q 559 278 536 111 q 553 297 560 289 q 534 305 547 305 q 423 305 498 305 q 403 297 412 305 q 392 278 393 289 q 357 27 380 194 q 346 8 355 16 q 326 0 336 0 q 270 0 307 0 q 251 8 258 0 q 245 27 244 16 q 281 278 258 111 q 275 297 282 289 q 256 305 269 305 q 56 305 190 305 q 35 313 45 305 q 27 334 27 321 q 27 389 27 351 q 35 408 27 400 q 56 416 45 416 q 273 416 127 416 q 293 425 283 416 q 304 445 302 433 q 320 556 309 481 q 315 575 321 567 q 296 583 308 583 q 56 583 216 583 q 35 591 45 583 q 27 612 27 600 q 27 667 27 629 q 35 686 27 678 q 56 694 45 694 q 311 694 141 694 q 332 703 323 694 q 343 722 340 711 q 378 972 354 806 q 389 991 380 983 q 410 1000 399 1000 q 465 1000 429 1000 q 484 991 476 1000 q 488 972 491 983 q 454 722 477 888 q 460 703 452 711 q 477 694 467 694 q 589 694 515 694 q 609 703 601 694 q 621 722 618 711 q 655 972 632 806 q 667 991 658 983 q 688 1000 675 1000 q 743 1000 707 1000 q 762 991 754 1000 q 766 972 769 983 q 732 722 755 888 q 736 703 730 711 q 755 694 745 694 q 1000 694 837 694 q 1020 686 1012 694 q 1028 667 1028 678 q 1028 612 1028 648 q 1020 591 1028 600 q 1000 583 1012 583 m 582 445 q 597 556 587 481 q 593 575 600 567 q 574 583 585 583 q 463 583 537 583 q 442 575 452 583 q 430 556 433 567 q 415 445 426 518 q 420 425 414 433 q 439 416 427 416 q 551 416 476 416 q 571 425 562 416 q 582 445 581 433 z "},"$":{"ha":612,"x_min":27,"x_max":583,"o":"m 167 888 q 146 880 155 888 q 138 861 138 872 q 138 583 138 769 q 146 564 138 572 q 167 556 155 556 q 556 556 296 556 q 575 548 567 556 q 583 528 583 540 q 583 27 583 361 q 575 8 583 16 q 556 0 567 0 q 389 0 500 0 q 369 -8 377 0 q 361 -27 361 -16 q 361 -56 361 -37 q 353 -75 361 -66 q 334 -83 345 -83 q 278 -83 315 -83 q 258 -75 266 -83 q 250 -56 250 -66 q 250 -27 250 -46 q 241 -8 250 -16 q 222 0 233 0 q 56 0 167 0 q 35 8 45 0 q 27 27 27 16 q 27 83 27 46 q 35 103 27 95 q 56 111 45 111 q 445 111 186 111 q 464 119 456 111 q 472 138 472 127 q 472 416 472 232 q 464 437 472 429 q 445 445 456 445 q 56 445 315 445 q 35 453 45 445 q 27 472 27 461 q 27 972 27 639 q 35 991 27 983 q 56 1000 45 1000 q 222 1000 111 1000 q 241 1008 233 1000 q 250 1028 250 1016 q 250 1055 250 1038 q 258 1076 250 1067 q 278 1084 266 1084 q 334 1084 296 1084 q 353 1076 345 1084 q 361 1055 361 1067 q 361 1028 361 1046 q 369 1008 361 1016 q 389 1000 377 1000 q 556 1000 445 1000 q 575 991 567 1000 q 583 972 583 983 q 583 917 583 954 q 575 897 583 905 q 556 888 567 888 q 361 888 458 888 q 167 888 264 888 z "},"%":{"ha":639,"x_min":30,"x_max":610,"o":"m 170 848 q 180 850 176 848 q 184 861 184 854 q 184 917 184 880 q 180 926 184 922 q 170 930 176 930 q 114 930 152 930 q 104 926 109 930 q 100 917 100 922 q 100 861 100 898 q 104 850 100 854 q 114 848 109 848 q 142 848 129 848 q 170 848 156 848 m 58 1000 q 225 1000 114 1000 q 245 991 237 1000 q 254 972 254 983 q 254 806 254 917 q 245 785 254 793 q 225 777 237 777 q 58 777 170 777 q 39 785 47 777 q 31 806 31 793 q 31 972 31 861 q 39 991 31 983 q 58 1000 47 1000 m 525 69 q 534 73 530 69 q 540 83 540 77 q 540 138 540 102 q 536 149 540 145 q 525 153 532 153 q 469 153 507 153 q 460 149 464 153 q 456 138 456 145 q 456 83 456 121 q 460 73 456 77 q 469 69 464 69 q 498 69 484 69 q 525 69 511 69 m 414 222 q 581 222 469 222 q 601 214 593 222 q 609 194 609 206 q 609 27 609 138 q 601 8 609 16 q 581 0 593 0 q 414 0 525 0 q 395 8 403 0 q 387 27 387 16 q 387 194 387 83 q 395 214 387 206 q 414 222 403 222 m 541 996 q 591 971 557 987 q 606 958 601 966 q 606 940 610 948 q 133 8 448 629 q 119 0 129 1 q 117 0 118 0 q 99 4 109 0 q 49 30 83 12 q 34 43 39 34 q 34 60 30 52 q 507 991 191 370 q 521 1000 511 1000 q 524 1000 522 1000 q 541 996 532 1000 z "},"&":{"ha":610,"x_min":27,"x_max":583,"o":"m 56 0 q 35 8 45 0 q 27 27 27 16 q 27 420 27 159 q 94 484 50 442 q 98 495 98 488 q 95 505 98 500 q 33 576 73 528 q 28 579 30 578 q 27 585 27 582 q 27 972 27 713 q 35 991 27 983 q 56 1000 45 1000 q 389 1000 167 1000 q 408 991 400 1000 q 416 972 416 983 q 416 654 416 867 q 415 648 416 651 q 412 644 415 647 q 263 496 362 595 q 258 486 258 491 q 262 476 258 480 q 448 262 323 404 q 463 258 453 254 q 472 271 472 260 q 472 389 472 311 q 480 408 472 400 q 500 416 488 416 q 556 416 518 416 q 575 408 567 416 q 583 389 583 400 q 583 27 583 269 q 575 8 583 16 q 556 0 567 0 q 305 0 430 0 q 56 0 180 0 m 400 111 q 412 119 410 111 q 411 134 416 127 q 184 399 335 222 q 175 403 180 403 q 164 400 170 404 q 142 380 157 393 q 140 373 141 376 q 138 368 138 372 q 138 138 138 292 q 146 119 138 127 q 167 111 155 111 q 283 111 225 111 q 400 111 342 111 m 171 583 q 180 578 175 579 q 191 582 186 578 q 301 690 228 618 q 305 694 304 692 q 305 700 305 697 q 305 861 305 754 q 297 880 305 872 q 278 888 289 888 q 167 888 240 888 q 146 880 155 888 q 138 861 138 872 q 138 625 138 783 q 140 621 138 623 q 141 617 141 618 q 156 600 149 609 q 171 583 164 591 z "},"'":{"ha":222,"x_min":27,"x_max":201,"o":"m 102 690 q 47 704 83 696 q 30 718 35 708 q 27 731 27 724 q 27 738 27 734 q 92 979 49 818 q 104 997 95 991 q 118 1000 111 1001 q 125 1000 122 1000 q 179 985 142 994 q 197 972 191 982 q 201 959 201 966 q 199 952 201 955 q 134 711 178 871 q 122 693 132 699 q 109 689 115 689 q 102 690 104 689 z "},"(":{"ha":334,"x_min":28,"x_max":305,"o":"m 248 -31 q 233 -35 241 -35 q 228 -35 231 -35 q 210 -22 216 -33 q 28 500 28 239 q 210 1024 28 764 q 228 1036 216 1034 q 232 1036 229 1036 q 248 1031 241 1036 q 293 997 263 1020 q 302 979 301 990 q 298 959 305 967 q 138 500 138 727 q 298 42 138 273 q 305 24 305 34 q 304 20 304 23 q 293 3 302 9 q 271 -14 282 -5 q 248 -31 259 -22 z "},")":{"ha":334,"x_min":28,"x_max":305,"o":"m 41 3 q 30 20 31 9 q 28 24 28 23 q 35 42 28 34 q 195 500 195 273 q 35 959 195 727 q 30 979 28 967 q 41 997 33 990 q 84 1031 56 1008 q 102 1036 92 1036 q 106 1036 103 1036 q 123 1024 118 1034 q 305 500 305 764 q 123 -22 305 239 q 106 -35 118 -33 q 100 -35 103 -35 q 84 -31 92 -35 q 62 -14 73 -22 q 41 3 52 -5 z "},"*":{"ha":500,"x_min":27,"x_max":472,"o":"m 453 845 q 467 837 461 845 q 472 817 472 829 q 472 761 472 798 q 467 742 472 750 q 453 734 461 734 q 346 734 418 734 q 399 642 363 703 q 399 625 403 635 q 385 612 395 616 q 336 583 369 602 q 320 578 328 578 q 317 578 319 578 q 302 586 307 579 q 250 678 285 617 q 197 586 232 647 q 183 578 193 579 q 164 583 175 576 q 115 612 148 593 q 102 625 106 616 q 102 642 98 635 q 155 734 119 673 q 47 734 118 734 q 34 742 39 734 q 27 761 27 750 q 27 817 27 780 q 34 837 27 829 q 47 845 39 845 q 155 845 83 845 q 102 936 137 875 q 100 952 98 944 q 115 967 104 962 q 164 994 132 977 q 180 1000 172 1000 q 183 1000 182 1000 q 197 991 193 1000 q 250 901 214 962 q 302 991 267 930 q 316 1000 307 1000 q 336 994 326 1001 q 385 967 353 985 q 399 952 395 962 q 399 936 403 944 q 346 845 381 906 q 399 845 373 845 q 453 845 426 845 z "},"+":{"ha":500,"x_min":27,"x_max":472,"o":"m 416 556 q 456 540 439 556 q 472 500 472 524 q 456 461 472 477 q 416 445 439 445 q 305 445 380 445 q 305 334 305 407 q 289 294 305 311 q 250 278 273 278 q 210 294 227 278 q 194 334 194 311 q 194 445 194 370 q 83 445 157 445 q 45 461 61 445 q 27 500 27 477 q 45 540 27 524 q 83 556 61 556 q 194 556 121 556 q 194 667 194 593 q 210 705 194 689 q 250 722 227 722 q 289 705 273 722 q 305 667 305 689 q 305 556 305 629 q 361 556 334 556 q 416 556 389 556 m 278 278 q 222 278 259 278 q 202 286 210 278 q 194 305 194 294 q 194 694 194 435 q 202 713 194 705 q 222 722 210 722 q 278 722 240 722 q 297 713 289 722 q 305 694 305 705 q 305 305 305 564 q 297 286 305 294 q 278 278 289 278 m 472 528 q 472 472 472 509 q 464 453 472 461 q 445 445 456 445 q 56 445 315 445 q 35 453 45 445 q 27 472 27 461 q 27 528 27 491 q 35 548 27 540 q 56 556 45 556 q 445 556 186 556 q 464 548 456 556 q 472 528 472 540 z "},",":{"ha":222,"x_min":23,"x_max":198,"o":"m 99 -195 q 45 -182 80 -191 q 27 -170 33 -179 q 24 -156 23 -163 q 24 -149 24 -152 q 91 94 46 -68 q 103 110 94 104 q 117 114 110 114 q 123 113 121 114 q 178 99 141 109 q 195 85 190 95 q 198 72 198 79 q 197 65 198 69 q 132 -176 175 -15 q 119 -194 129 -187 q 106 -197 113 -197 q 99 -195 102 -197 z "},"-":{"ha":361,"x_min":27,"x_max":332,"o":"m 332 528 q 332 472 332 509 q 327 453 332 461 q 313 445 321 445 q 46 445 224 445 q 33 453 38 445 q 27 472 27 461 q 27 528 27 491 q 33 548 27 540 q 46 556 38 556 q 313 556 136 556 q 327 548 321 556 q 332 528 332 540 z "},".":{"ha":167,"x_min":27,"x_max":138,"o":"m 111 0 q 56 0 92 0 q 35 8 45 0 q 27 27 27 16 q 27 83 27 46 q 35 103 27 95 q 56 111 45 111 q 111 111 75 111 q 130 103 122 111 q 138 83 138 95 q 138 27 138 65 q 130 8 138 16 q 111 0 122 0 z "},"/":{"ha":610,"x_min":18,"x_max":594,"o":"m 526 996 q 576 971 543 987 q 591 958 587 966 q 594 948 594 952 q 591 940 594 944 q 118 8 434 629 q 104 0 114 1 q 102 0 103 0 q 84 4 94 0 q 35 30 68 12 q 20 43 24 34 q 18 52 18 47 q 19 60 18 56 q 494 991 178 370 q 507 1000 498 1000 q 509 1000 507 1000 q 526 996 518 1000 z "},":":{"ha":167,"x_min":27,"x_max":138,"o":"m 111 667 q 56 667 92 667 q 35 675 45 667 q 27 694 27 684 q 27 750 27 713 q 35 769 27 761 q 56 777 45 777 q 111 777 75 777 q 130 769 122 777 q 138 750 138 761 q 138 694 138 731 q 130 675 138 684 q 111 667 122 667 m 111 0 q 56 0 92 0 q 35 8 45 0 q 27 27 27 16 q 27 83 27 46 q 35 103 27 95 q 56 111 45 111 q 111 111 75 111 q 130 103 122 111 q 138 83 138 95 q 138 27 138 65 q 130 8 138 16 q 111 0 122 0 z "},";":{"ha":222,"x_min":23,"x_max":198,"o":"m 167 667 q 111 667 148 667 q 91 675 99 667 q 83 694 83 684 q 83 750 83 713 q 91 769 83 761 q 111 777 99 777 q 167 777 130 777 q 186 769 178 777 q 194 750 194 761 q 194 694 194 731 q 186 675 194 684 q 167 667 178 667 m 99 -195 q 45 -182 80 -191 q 27 -170 33 -179 q 24 -156 23 -163 q 24 -149 24 -152 q 91 94 46 -68 q 103 110 94 104 q 123 113 113 115 q 178 99 141 109 q 195 85 190 95 q 198 72 198 79 q 197 65 198 69 q 132 -176 175 -15 q 119 -194 129 -187 q 106 -197 113 -197 q 99 -195 102 -197 z "},"<":{"ha":334,"x_min":19,"x_max":313,"o":"m 267 719 q 305 678 279 705 q 313 659 313 670 q 305 639 313 647 q 184 518 266 598 q 176 499 176 511 q 184 479 176 487 q 305 358 225 439 q 313 339 313 351 q 305 320 313 328 q 267 281 293 307 q 248 273 259 273 q 228 281 236 273 q 27 480 161 347 q 19 499 19 488 q 27 519 19 511 q 228 719 95 586 q 247 728 235 728 q 267 719 258 728 z "},"=":{"ha":612,"x_min":27,"x_max":583,"o":"m 583 667 q 583 612 583 648 q 578 591 583 600 q 564 583 572 583 q 47 583 392 583 q 34 591 39 583 q 27 612 27 600 q 27 667 27 629 q 34 686 27 678 q 47 694 39 694 q 564 694 220 694 q 578 686 572 694 q 583 667 583 678 m 583 389 q 583 334 583 370 q 578 313 583 321 q 564 305 572 305 q 47 305 392 305 q 34 313 39 305 q 27 334 27 321 q 27 389 27 351 q 34 408 27 400 q 47 416 39 416 q 564 416 220 416 q 578 408 572 416 q 583 389 583 400 z "},">":{"ha":334,"x_min":19,"x_max":313,"o":"m 66 281 q 27 323 54 294 q 19 342 19 330 q 27 361 19 353 q 149 481 68 401 q 157 500 157 490 q 149 521 157 513 q 27 642 109 562 q 19 661 19 648 q 27 681 19 673 q 66 719 41 693 q 85 728 75 728 q 106 719 98 728 q 305 519 172 652 q 313 500 313 513 q 305 480 313 488 q 106 281 239 414 q 87 273 98 273 q 66 281 75 273 z "},"?":{"ha":612,"x_min":27,"x_max":583,"o":"m 56 1000 q 556 1000 222 1000 q 575 991 567 1000 q 583 972 583 983 q 583 472 583 806 q 575 453 583 461 q 556 445 567 445 q 389 445 500 445 q 369 437 377 445 q 361 416 361 429 q 361 194 361 343 q 353 175 361 183 q 334 167 345 167 q 278 167 315 167 q 258 175 266 167 q 250 194 250 183 q 250 528 250 305 q 258 548 250 540 q 278 556 266 556 q 445 556 334 556 q 464 564 456 556 q 472 583 472 572 q 472 861 472 675 q 464 880 472 872 q 445 888 456 888 q 167 888 351 888 q 146 880 155 888 q 138 861 138 872 q 138 777 138 833 q 130 758 138 766 q 111 750 122 750 q 56 750 92 750 q 35 758 45 750 q 27 777 27 766 q 27 972 27 842 q 35 991 27 983 q 56 1000 45 1000 m 278 111 q 334 111 296 111 q 353 103 345 111 q 361 83 361 95 q 361 27 361 65 q 353 8 361 16 q 334 0 345 0 q 278 0 315 0 q 258 8 266 0 q 250 27 250 16 q 250 83 250 46 q 258 103 250 95 q 278 111 266 111 z "},"@":{"ha":944,"x_min":27,"x_max":917,"o":"m 27 861 q 35 880 27 872 q 56 888 45 888 q 888 888 334 888 q 909 880 901 888 q 917 861 917 872 q 917 194 917 639 q 909 175 917 183 q 888 167 901 167 q 222 167 667 167 q 202 175 210 167 q 194 194 194 183 q 194 694 194 361 q 202 713 194 705 q 222 722 210 722 q 722 722 389 722 q 742 713 734 722 q 750 694 750 705 q 750 305 750 564 q 758 286 750 294 q 777 278 766 278 q 798 286 789 278 q 806 305 806 294 q 806 750 806 454 q 798 769 806 761 q 777 777 789 777 q 167 777 574 777 q 146 769 155 777 q 138 750 138 761 q 138 138 138 547 q 146 119 138 127 q 167 111 155 111 q 888 111 407 111 q 909 103 901 111 q 917 83 917 95 q 917 27 917 65 q 909 8 917 16 q 888 0 901 0 q 56 0 612 0 q 35 8 45 0 q 27 27 27 16 q 27 445 27 236 q 27 861 27 652 m 612 278 q 631 286 623 278 q 639 305 639 294 q 639 583 639 399 q 631 604 639 595 q 612 612 623 612 q 334 612 518 612 q 313 604 321 612 q 305 583 305 595 q 305 305 305 491 q 313 286 305 294 q 334 278 321 278 q 472 278 403 278 q 612 278 541 278 z "},"A":{"ha":612,"x_min":27,"x_max":583,"o":"m 27 944 q 45 983 27 967 q 83 1000 61 1000 q 528 1000 232 1000 q 567 983 551 1000 q 583 944 583 967 q 583 27 583 639 q 575 8 583 16 q 556 0 567 0 q 500 0 537 0 q 480 8 488 0 q 472 27 472 16 q 472 389 472 148 q 456 429 472 412 q 416 445 439 445 q 194 445 343 445 q 155 429 171 445 q 138 389 138 412 q 138 27 138 269 q 130 8 138 16 q 111 0 122 0 q 56 0 92 0 q 35 8 45 0 q 27 27 27 16 q 27 486 27 256 q 27 944 27 715 m 138 612 q 155 572 138 589 q 194 556 171 556 q 416 556 269 556 q 456 572 439 556 q 472 612 472 589 q 472 833 472 685 q 456 872 472 856 q 416 888 439 888 q 194 888 343 888 q 155 872 171 888 q 138 833 138 856 q 138 722 138 777 q 138 612 138 667 z "},"B":{"ha":612,"x_min":27,"x_max":583,"o":"m 27 1000 q 500 1000 186 1000 q 559 975 534 1000 q 583 917 583 951 q 583 83 583 639 q 559 24 583 49 q 500 0 534 0 q 27 0 343 0 q 27 500 27 250 q 27 1000 27 750 m 445 111 q 464 119 456 111 q 472 138 472 127 q 472 416 472 232 q 464 437 472 429 q 445 445 456 445 q 138 445 343 445 q 138 111 138 334 q 292 111 216 111 q 445 111 368 111 m 445 556 q 464 564 456 556 q 472 583 472 572 q 472 861 472 675 q 464 880 472 872 q 445 888 456 888 q 138 888 343 888 q 138 556 138 777 q 292 556 216 556 q 445 556 368 556 z "},"C":{"ha":610,"x_min":27,"x_max":583,"o":"m 583 83 q 583 27 583 65 q 575 8 583 16 q 556 0 567 0 q 56 0 389 0 q 35 8 45 0 q 27 27 27 16 q 27 972 27 343 q 35 991 27 983 q 56 1000 45 1000 q 556 1000 222 1000 q 575 991 567 1000 q 583 972 583 983 q 583 917 583 954 q 575 897 583 905 q 556 888 567 888 q 167 888 426 888 q 146 880 155 888 q 138 861 138 872 q 138 138 138 620 q 146 119 138 127 q 167 111 155 111 q 556 111 296 111 q 575 103 567 111 q 583 83 583 95 z "},"D":{"ha":612,"x_min":27,"x_max":583,"o":"m 416 111 q 456 127 439 111 q 472 167 472 144 q 472 833 472 389 q 456 872 472 856 q 416 888 439 888 q 138 888 324 888 q 138 111 138 629 q 278 111 209 111 q 416 111 347 111 m 500 1000 q 559 975 534 1000 q 583 917 583 951 q 583 83 583 639 q 559 24 583 49 q 500 0 534 0 q 27 0 343 0 q 27 1000 27 334 q 264 1000 146 1000 q 500 1000 382 1000 z "},"E":{"ha":612,"x_min":27,"x_max":583,"o":"m 167 111 q 556 111 296 111 q 575 103 567 111 q 583 83 583 95 q 583 27 583 65 q 575 8 583 16 q 556 0 567 0 q 56 0 389 0 q 35 8 45 0 q 27 27 27 16 q 27 972 27 343 q 35 991 27 983 q 56 1000 45 1000 q 556 1000 222 1000 q 575 991 567 1000 q 583 972 583 983 q 583 917 583 954 q 575 897 583 905 q 556 888 567 888 q 167 888 426 888 q 146 880 155 888 q 138 861 138 872 q 138 583 138 769 q 146 564 138 572 q 167 556 155 556 q 556 556 296 556 q 575 548 567 556 q 583 528 583 540 q 583 472 583 509 q 575 453 583 461 q 556 445 567 445 q 167 445 426 445 q 146 437 155 445 q 138 416 138 429 q 138 138 138 324 q 146 119 138 127 q 167 111 155 111 z "},"F":{"ha":612,"x_min":27,"x_max":583,"o":"m 27 27 q 27 972 27 343 q 35 991 27 983 q 56 1000 45 1000 q 556 1000 222 1000 q 575 991 567 1000 q 583 972 583 983 q 583 917 583 954 q 575 897 583 905 q 556 888 567 888 q 167 888 426 888 q 146 880 155 888 q 138 861 138 872 q 138 583 138 769 q 146 564 138 572 q 167 556 155 556 q 556 556 296 556 q 575 548 567 556 q 583 528 583 540 q 583 472 583 509 q 575 453 583 461 q 556 445 567 445 q 167 445 426 445 q 146 437 155 445 q 138 416 138 429 q 138 27 138 288 q 130 8 138 16 q 111 0 122 0 q 56 0 92 0 q 35 8 45 0 q 27 27 27 16 z "},"G":{"ha":612,"x_min":27,"x_max":583,"o":"m 138 861 q 138 138 138 620 q 146 119 138 127 q 167 111 155 111 q 445 111 259 111 q 464 119 456 111 q 472 138 472 127 q 472 416 472 232 q 464 437 472 429 q 445 445 456 445 q 389 445 426 445 q 369 453 377 445 q 361 472 361 461 q 361 528 361 491 q 369 548 361 540 q 389 556 377 556 q 556 556 445 556 q 575 548 567 556 q 583 528 583 540 q 583 27 583 361 q 575 8 583 16 q 556 0 567 0 q 56 0 389 0 q 35 8 45 0 q 27 27 27 16 q 27 972 27 343 q 35 991 27 983 q 56 1000 45 1000 q 556 1000 222 1000 q 575 991 567 1000 q 583 972 583 983 q 583 917 583 954 q 575 897 583 905 q 556 888 567 888 q 167 888 426 888 q 146 880 155 888 q 138 861 138 872 z "},"H":{"ha":612,"x_min":27,"x_max":583,"o":"m 167 556 q 445 556 259 556 q 464 564 456 556 q 472 583 472 572 q 472 972 472 713 q 480 991 472 983 q 500 1000 488 1000 q 556 1000 518 1000 q 575 991 567 1000 q 583 972 583 983 q 583 27 583 658 q 575 8 583 16 q 556 0 567 0 q 500 0 537 0 q 480 8 488 0 q 472 27 472 16 q 472 416 472 157 q 464 437 472 429 q 445 445 456 445 q 167 445 351 445 q 146 437 155 445 q 138 416 138 429 q 138 27 138 288 q 130 8 138 16 q 111 0 122 0 q 56 0 92 0 q 35 8 45 0 q 27 27 27 16 q 27 972 27 343 q 35 991 27 983 q 56 1000 45 1000 q 111 1000 75 1000 q 130 991 122 1000 q 138 972 138 983 q 138 583 138 842 q 146 564 138 572 q 167 556 155 556 z "},"I":{"ha":610,"x_min":27,"x_max":583,"o":"m 583 917 q 575 897 583 905 q 556 888 567 888 q 389 888 500 888 q 369 880 377 888 q 361 861 361 872 q 361 138 361 620 q 369 119 361 127 q 389 111 377 111 q 556 111 445 111 q 575 103 567 111 q 583 83 583 95 q 583 27 583 65 q 575 8 583 16 q 556 0 567 0 q 56 0 389 0 q 35 8 45 0 q 27 27 27 16 q 27 83 27 46 q 35 103 27 95 q 56 111 45 111 q 222 111 111 111 q 241 119 233 111 q 250 138 250 127 q 250 861 250 380 q 241 880 250 872 q 222 888 233 888 q 56 888 167 888 q 35 897 45 888 q 27 917 27 905 q 27 972 27 935 q 35 991 27 983 q 56 1000 45 1000 q 556 1000 222 1000 q 575 991 567 1000 q 583 972 583 983 q 583 944 583 959 q 583 917 583 930 z "},"J":{"ha":610,"x_min":27,"x_max":583,"o":"m 472 972 q 480 991 472 983 q 500 1000 488 1000 q 556 1000 518 1000 q 575 991 567 1000 q 583 972 583 983 q 583 27 583 658 q 575 8 583 16 q 556 0 567 0 q 56 0 389 0 q 35 8 45 0 q 27 27 27 16 q 27 305 27 121 q 35 326 27 317 q 56 334 45 334 q 111 334 75 334 q 130 326 122 334 q 138 305 138 317 q 138 138 138 250 q 146 119 138 127 q 167 111 155 111 q 445 111 259 111 q 464 119 456 111 q 472 138 472 127 q 472 556 472 347 q 472 972 472 764 z "},"K":{"ha":612,"x_min":27,"x_max":574,"o":"m 199 510 q 197 500 197 506 q 199 490 197 495 q 566 104 321 362 q 574 84 574 96 q 566 65 574 73 q 521 20 551 50 q 500 14 513 12 q 480 22 488 14 q 163 363 374 136 q 148 366 156 370 q 138 354 138 363 q 138 27 138 245 q 130 8 138 16 q 111 0 122 0 q 56 0 92 0 q 35 8 45 0 q 27 27 27 16 q 27 972 27 343 q 35 991 27 983 q 56 1000 45 1000 q 111 1000 75 1000 q 130 991 122 1000 q 138 972 138 983 q 138 647 138 864 q 148 633 138 637 q 163 637 156 631 q 479 979 269 751 q 499 989 487 989 q 519 981 511 989 q 564 936 534 966 q 571 917 571 928 q 564 898 571 906 q 382 704 473 800 q 199 510 292 606 z "},"L":{"ha":610,"x_min":27,"x_max":583,"o":"m 27 972 q 35 991 27 983 q 56 1000 45 1000 q 111 1000 75 1000 q 130 991 122 1000 q 138 972 138 983 q 138 138 138 694 q 146 119 138 127 q 167 111 155 111 q 556 111 296 111 q 575 103 567 111 q 583 83 583 95 q 583 27 583 65 q 575 8 583 16 q 556 0 567 0 q 56 0 389 0 q 35 8 45 0 q 27 27 27 16 q 27 500 27 264 q 27 972 27 736 z "},"M":{"ha":1055,"x_min":27,"x_max":1028,"o":"m 56 1000 q 1000 1000 370 1000 q 1020 991 1012 1000 q 1028 972 1028 983 q 1028 27 1028 658 q 1020 8 1028 16 q 1000 0 1012 0 q 944 0 982 0 q 925 8 933 0 q 917 27 917 16 q 917 861 917 305 q 909 880 917 872 q 888 888 901 888 q 612 888 796 888 q 591 880 600 888 q 583 861 583 872 q 583 27 583 583 q 575 8 583 16 q 556 0 567 0 q 500 0 537 0 q 480 8 488 0 q 472 27 472 16 q 472 861 472 305 q 464 880 472 872 q 445 888 456 888 q 167 888 351 888 q 146 880 155 888 q 138 861 138 872 q 138 27 138 583 q 130 8 138 16 q 111 0 122 0 q 56 0 92 0 q 35 8 45 0 q 27 27 27 16 q 27 972 27 343 q 35 991 27 983 q 56 1000 45 1000 z "},"N":{"ha":612,"x_min":27,"x_max":583,"o":"m 500 1000 q 556 1000 518 1000 q 575 991 567 1000 q 583 972 583 983 q 583 27 583 658 q 575 8 583 16 q 556 0 567 0 q 500 0 537 0 q 477 7 488 0 q 461 24 465 15 q 165 690 362 247 q 151 699 161 701 q 138 685 138 696 q 138 27 138 465 q 130 8 138 16 q 111 0 122 0 q 56 0 92 0 q 35 8 45 0 q 27 27 27 16 q 27 972 27 343 q 35 991 27 983 q 56 1000 45 1000 q 111 1000 75 1000 q 134 993 122 1000 q 151 975 146 986 q 446 309 248 753 q 461 301 450 300 q 472 315 472 304 q 472 972 472 534 q 480 991 472 983 q 500 1000 488 1000 z "},"O":{"ha":612,"x_min":27,"x_max":583,"o":"m 416 111 q 456 127 439 111 q 472 167 472 144 q 472 833 472 389 q 456 872 472 856 q 416 888 439 888 q 194 888 343 888 q 155 872 171 888 q 138 833 138 856 q 138 167 138 612 q 155 127 138 144 q 194 111 171 111 q 305 111 250 111 q 416 111 361 111 m 528 1000 q 567 983 551 1000 q 583 944 583 967 q 583 777 583 888 q 583 56 583 537 q 567 16 583 33 q 528 0 551 0 q 83 0 380 0 q 45 16 61 0 q 27 56 27 33 q 27 944 27 351 q 45 983 27 967 q 83 1000 61 1000 q 305 1000 194 1000 q 528 1000 416 1000 z "},"P":{"ha":612,"x_min":27,"x_max":583,"o":"m 528 1000 q 567 983 551 1000 q 583 944 583 967 q 583 500 583 796 q 567 461 583 477 q 528 445 551 445 q 194 445 416 445 q 155 429 171 445 q 138 389 138 412 q 138 27 138 269 q 130 8 138 16 q 111 0 122 0 q 56 0 92 0 q 35 8 45 0 q 27 27 27 16 q 27 1000 27 351 q 278 1000 153 1000 q 528 1000 403 1000 m 472 612 q 472 833 472 685 q 456 872 472 856 q 416 888 439 888 q 138 888 324 888 q 138 556 138 777 q 416 556 232 556 q 456 572 439 556 q 472 612 472 589 z "},"Q":{"ha":610,"x_min":27,"x_max":583,"o":"m 56 1000 q 556 1000 222 1000 q 575 991 567 1000 q 583 972 583 983 q 583 806 583 917 q 583 777 583 793 q 583 750 583 761 q 583 27 583 509 q 575 8 583 16 q 556 0 567 0 q 389 0 500 0 q 369 -8 377 0 q 361 -27 361 -16 q 361 -194 361 -83 q 353 -214 361 -206 q 334 -222 345 -222 q 278 -222 315 -222 q 258 -214 266 -222 q 250 -194 250 -206 q 250 -27 250 -138 q 241 -8 250 -16 q 222 0 233 0 q 56 0 167 0 q 35 8 45 0 q 27 27 27 16 q 27 972 27 343 q 35 991 27 983 q 56 1000 45 1000 m 472 138 q 472 861 472 380 q 464 880 472 872 q 445 888 456 888 q 167 888 351 888 q 146 880 155 888 q 138 861 138 872 q 138 138 138 620 q 146 119 138 127 q 167 111 155 111 q 445 111 259 111 q 464 119 456 111 q 472 138 472 127 z "},"R":{"ha":610,"x_min":27,"x_max":583,"o":"m 500 1000 q 559 975 534 1000 q 583 917 583 951 q 583 528 583 787 q 559 469 583 494 q 500 445 534 445 q 229 445 410 445 q 217 435 220 445 q 220 420 213 427 q 559 80 332 308 q 566 58 568 71 q 555 38 564 45 q 518 14 543 30 q 500 8 510 8 q 483 16 491 9 q 163 338 377 123 q 148 340 156 343 q 138 328 138 338 q 138 27 138 228 q 130 8 138 16 q 111 0 122 0 q 56 0 92 0 q 35 8 45 0 q 27 27 27 16 q 27 1000 27 351 q 264 1000 146 1000 q 500 1000 382 1000 m 445 556 q 464 564 456 556 q 472 583 472 572 q 472 861 472 675 q 464 880 472 872 q 445 888 456 888 q 138 888 343 888 q 138 556 138 777 q 292 556 216 556 q 445 556 368 556 z "},"S":{"ha":612,"x_min":27,"x_max":583,"o":"m 556 888 q 167 888 426 888 q 146 880 155 888 q 138 861 138 872 q 138 583 138 769 q 146 564 138 572 q 167 556 155 556 q 556 556 296 556 q 575 548 567 556 q 583 528 583 540 q 583 27 583 361 q 575 8 583 16 q 556 0 567 0 q 56 0 389 0 q 35 8 45 0 q 27 27 27 16 q 27 83 27 46 q 35 103 27 95 q 56 111 45 111 q 445 111 186 111 q 464 119 456 111 q 472 138 472 127 q 472 416 472 232 q 464 437 472 429 q 445 445 456 445 q 56 445 315 445 q 35 453 45 445 q 27 472 27 461 q 27 972 27 639 q 35 991 27 983 q 56 1000 45 1000 q 556 1000 222 1000 q 575 991 567 1000 q 583 972 583 983 q 583 917 583 954 q 575 897 583 905 q 556 888 567 888 z "},"T":{"ha":610,"x_min":27,"x_max":583,"o":"m 583 972 q 583 917 583 954 q 575 897 583 905 q 556 888 567 888 q 389 888 500 888 q 369 880 377 888 q 361 861 361 872 q 361 27 361 583 q 353 8 361 16 q 334 0 345 0 q 278 0 315 0 q 258 8 266 0 q 250 27 250 16 q 250 861 250 305 q 241 880 250 872 q 222 888 233 888 q 56 888 167 888 q 35 897 45 888 q 27 917 27 905 q 27 972 27 935 q 35 991 27 983 q 56 1000 45 1000 q 556 1000 222 1000 q 575 991 567 1000 q 583 972 583 983 z "},"U":{"ha":610,"x_min":27,"x_max":583,"o":"m 138 972 q 138 138 138 694 q 146 119 138 127 q 167 111 155 111 q 445 111 259 111 q 464 119 456 111 q 472 138 472 127 q 472 972 472 416 q 480 991 472 983 q 500 1000 488 1000 q 556 1000 518 1000 q 575 991 567 1000 q 583 972 583 983 q 583 27 583 658 q 575 8 583 16 q 556 0 567 0 q 56 0 389 0 q 35 8 45 0 q 27 27 27 16 q 27 972 27 343 q 35 991 27 983 q 56 1000 45 1000 q 111 1000 75 1000 q 130 991 122 1000 q 138 972 138 983 z "},"V":{"ha":612,"x_min":33,"x_max":576,"o":"m 468 978 q 477 994 471 987 q 494 1000 484 1000 q 547 1000 511 1000 q 570 990 560 1000 q 576 974 575 982 q 575 967 576 970 q 365 22 505 652 q 354 7 362 12 q 338 0 347 0 q 271 0 315 0 q 252 7 260 0 q 243 22 245 12 q 34 967 174 336 q 33 972 33 970 q 39 990 33 982 q 61 1000 47 1000 q 115 1000 79 1000 q 133 994 126 1000 q 142 978 141 987 q 292 311 193 755 q 307 301 294 301 q 320 311 317 301 q 393 644 357 477 q 468 978 431 811 z "},"W":{"ha":1055,"x_min":27,"x_max":1028,"o":"m 1000 0 q 56 0 685 0 q 35 8 45 0 q 27 27 27 16 q 27 972 27 343 q 35 991 27 983 q 56 1000 45 1000 q 111 1000 75 1000 q 130 991 122 1000 q 138 972 138 983 q 138 138 138 694 q 146 119 138 127 q 167 111 155 111 q 445 111 259 111 q 464 119 456 111 q 472 138 472 127 q 472 972 472 416 q 480 991 472 983 q 500 1000 488 1000 q 556 1000 518 1000 q 575 991 567 1000 q 583 972 583 983 q 583 138 583 694 q 591 119 583 127 q 612 111 600 111 q 888 111 704 111 q 909 119 901 111 q 917 138 917 127 q 917 972 917 416 q 925 991 917 983 q 944 1000 933 1000 q 1000 1000 963 1000 q 1020 991 1012 1000 q 1028 972 1028 983 q 1028 27 1028 658 q 1020 8 1028 16 q 1000 0 1012 0 z "},"X":{"ha":583,"x_min":24,"x_max":557,"o":"m 526 1000 q 549 987 541 1000 q 555 971 555 979 q 552 962 555 966 q 350 506 484 810 q 349 500 349 503 q 350 495 349 498 q 551 39 416 343 q 549 12 557 26 q 526 0 541 0 q 476 0 509 0 q 461 4 468 0 q 450 16 454 9 q 304 347 401 127 q 292 355 301 355 q 278 347 283 355 q 132 16 229 237 q 122 4 129 9 q 107 0 115 0 q 57 0 90 0 q 33 12 41 0 q 28 28 28 20 q 30 39 28 34 q 233 495 98 191 q 233 499 233 496 q 233 506 233 502 q 30 962 165 658 q 33 987 24 975 q 57 1000 41 1000 q 107 1000 73 1000 q 122 996 115 1000 q 132 983 129 990 q 278 654 180 873 q 290 646 282 646 q 304 654 300 646 q 450 983 353 764 q 461 996 454 990 q 476 1000 468 1000 q 500 1000 488 1000 q 526 1000 514 1000 z "},"Y":{"ha":583,"x_min":28,"x_max":555,"o":"m 450 983 q 461 996 454 990 q 476 1000 468 1000 q 526 1000 492 1000 q 549 987 541 1000 q 555 971 555 979 q 552 962 555 966 q 349 503 484 808 q 347 500 347 502 q 347 498 347 498 q 347 27 347 340 q 339 8 347 16 q 319 0 331 0 q 263 0 301 0 q 244 8 252 0 q 236 27 236 16 q 236 498 236 184 q 236 500 236 498 q 235 503 235 502 q 30 962 167 655 q 28 971 28 966 q 33 987 28 979 q 57 1000 41 1000 q 107 1000 73 1000 q 122 996 115 1000 q 132 983 129 990 q 278 654 180 873 q 290 646 282 646 q 304 654 300 646 q 377 819 340 736 q 450 983 414 901 z "},"Z":{"ha":610,"x_min":27,"x_max":583,"o":"m 583 972 q 583 918 583 954 q 579 891 583 906 q 570 865 575 876 q 179 136 439 623 q 179 118 174 126 q 194 111 183 111 q 556 111 315 111 q 575 103 567 111 q 583 83 583 95 q 583 27 583 65 q 575 8 583 16 q 556 0 567 0 q 56 0 389 0 q 35 8 45 0 q 27 27 27 16 q 27 83 27 46 q 31 110 27 95 q 41 136 35 126 q 431 864 171 378 q 433 882 437 875 q 416 888 429 888 q 56 888 296 888 q 35 897 45 888 q 27 917 27 905 q 27 972 27 935 q 35 991 27 983 q 56 1000 45 1000 q 556 1000 222 1000 q 575 991 567 1000 q 583 972 583 983 z "},"[":{"ha":334,"x_min":27,"x_max":305,"o":"m 27 -83 q 27 1055 27 296 q 35 1076 27 1067 q 56 1084 45 1084 q 278 1084 130 1084 q 297 1076 289 1084 q 305 1055 305 1067 q 305 1000 305 1038 q 297 981 305 989 q 278 972 289 972 q 167 972 240 972 q 146 964 155 972 q 138 944 138 956 q 138 27 138 639 q 146 8 138 16 q 167 0 155 0 q 278 0 203 0 q 297 -8 289 0 q 305 -27 305 -16 q 305 -83 305 -46 q 297 -103 305 -95 q 278 -111 289 -111 q 56 -111 203 -111 q 35 -103 45 -111 q 27 -83 27 -95 z "},"\\":{"ha":610,"x_min":16,"x_max":595,"o":"m 578 30 q 528 4 562 20 q 510 0 518 0 q 507 0 509 0 q 495 8 498 1 q 18 940 335 319 q 16 947 16 943 q 19 956 16 951 q 35 971 24 966 q 84 996 52 979 q 102 1000 94 1001 q 104 1000 103 1000 q 118 991 115 1000 q 593 60 277 681 q 595 53 595 57 q 593 43 595 49 q 578 30 587 34 z "},"]":{"ha":334,"x_min":27,"x_max":305,"o":"m 278 -111 q 56 -111 203 -111 q 35 -103 45 -111 q 27 -83 27 -95 q 27 -27 27 -65 q 35 -8 27 -16 q 56 0 45 0 q 167 0 92 0 q 186 8 178 0 q 194 27 194 16 q 194 944 194 334 q 186 964 194 956 q 167 972 178 972 q 56 972 130 972 q 35 981 45 972 q 27 1000 27 989 q 27 1055 27 1019 q 35 1076 27 1067 q 56 1084 45 1084 q 278 1084 130 1084 q 297 1076 289 1084 q 305 1055 305 1067 q 305 -83 305 675 q 297 -103 305 -95 q 278 -111 289 -111 z "},"^":{"ha":389,"x_min":24,"x_max":363,"o":"m 355 811 q 313 773 342 799 q 294 765 307 765 q 275 773 283 765 q 213 836 254 793 q 194 844 205 844 q 174 836 182 844 q 111 773 153 815 q 92 765 104 765 q 72 773 80 765 q 34 811 60 785 q 24 830 24 819 q 34 850 24 842 q 175 993 80 898 q 194 1001 182 1001 q 214 993 206 1001 q 355 850 262 945 q 363 831 363 844 q 355 811 363 821 z "},"_":{"ha":779,"x_min":27,"x_max":750,"o":"m 750 83 q 750 27 750 65 q 745 8 750 16 q 731 0 739 0 q 47 0 503 0 q 34 8 39 0 q 27 27 27 16 q 27 83 27 46 q 34 103 27 95 q 47 111 39 111 q 731 111 275 111 q 745 103 739 111 q 750 83 750 95 z "},"`":{"ha":222,"x_min":27,"x_max":201,"o":"m 49 983 q 103 998 66 989 q 110 998 106 998 q 123 996 117 1000 q 136 978 133 990 q 199 736 157 898 q 201 730 201 734 q 198 716 201 723 q 180 704 193 707 q 126 689 163 699 q 119 688 123 689 q 106 692 113 688 q 94 709 96 697 q 27 951 72 789 q 27 958 27 954 q 31 971 27 964 q 49 983 37 981 z "},"a":{"ha":612,"x_min":27,"x_max":583,"o":"m 556 0 q 56 0 389 0 q 35 8 45 0 q 27 27 27 16 q 27 528 27 194 q 35 548 27 540 q 56 556 45 556 q 445 556 186 556 q 464 564 456 556 q 472 583 472 572 q 472 639 472 602 q 464 659 472 650 q 445 667 456 667 q 56 667 315 667 q 35 675 45 667 q 27 694 27 684 q 27 750 27 713 q 35 769 27 761 q 56 777 45 777 q 556 777 222 777 q 575 769 567 777 q 583 750 583 761 q 583 27 583 509 q 575 8 583 16 q 556 0 567 0 m 445 445 q 167 445 351 445 q 146 437 155 445 q 138 416 138 429 q 138 138 138 324 q 146 119 138 127 q 167 111 155 111 q 445 111 259 111 q 464 119 456 111 q 472 138 472 127 q 472 416 472 232 q 464 437 472 429 q 445 445 456 445 z "},"b":{"ha":610,"x_min":27,"x_max":583,"o":"m 167 777 q 556 777 296 777 q 575 769 567 777 q 583 750 583 761 q 583 27 583 509 q 575 8 583 16 q 556 0 567 0 q 56 0 389 0 q 35 8 45 0 q 27 27 27 16 q 27 972 27 343 q 35 991 27 983 q 56 1000 45 1000 q 111 1000 75 1000 q 130 991 122 1000 q 138 972 138 983 q 138 806 138 917 q 146 785 138 793 q 167 777 155 777 m 167 111 q 445 111 259 111 q 464 119 456 111 q 472 138 472 127 q 472 639 472 305 q 464 659 472 650 q 445 667 456 667 q 167 667 351 667 q 146 659 155 667 q 138 639 138 650 q 138 138 138 472 q 146 119 138 127 q 167 111 155 111 z "},"c":{"ha":610,"x_min":27,"x_max":583,"o":"m 583 83 q 583 27 583 65 q 575 8 583 16 q 556 0 567 0 q 56 0 389 0 q 35 8 45 0 q 27 27 27 16 q 27 750 27 269 q 35 769 27 761 q 56 777 45 777 q 556 777 222 777 q 575 769 567 777 q 583 750 583 761 q 583 694 583 731 q 575 675 583 684 q 556 667 567 667 q 167 667 426 667 q 146 659 155 667 q 138 639 138 650 q 138 138 138 472 q 146 119 138 127 q 167 111 155 111 q 556 111 296 111 q 575 103 567 111 q 583 83 583 95 z "},"d":{"ha":610,"x_min":27,"x_max":583,"o":"m 56 777 q 445 777 186 777 q 464 785 456 777 q 472 806 472 793 q 472 972 472 861 q 480 991 472 983 q 500 1000 488 1000 q 556 1000 518 1000 q 575 991 567 1000 q 583 972 583 983 q 583 27 583 658 q 575 8 583 16 q 556 0 567 0 q 56 0 389 0 q 35 8 45 0 q 27 27 27 16 q 27 750 27 269 q 35 769 27 761 q 56 777 45 777 m 167 111 q 445 111 259 111 q 464 119 456 111 q 472 138 472 127 q 472 639 472 305 q 464 659 472 650 q 445 667 456 667 q 167 667 351 667 q 146 659 155 667 q 138 639 138 650 q 138 138 138 472 q 146 119 138 127 q 167 111 155 111 z "},"e":{"ha":612,"x_min":27,"x_max":583,"o":"m 56 777 q 556 777 222 777 q 575 769 567 777 q 583 750 583 761 q 583 250 583 583 q 575 231 583 239 q 556 222 567 222 q 167 222 426 222 q 146 214 155 222 q 138 194 138 206 q 138 138 138 176 q 146 119 138 127 q 167 111 155 111 q 556 111 296 111 q 575 103 567 111 q 583 83 583 95 q 583 27 583 65 q 575 8 583 16 q 556 0 567 0 q 56 0 389 0 q 35 8 45 0 q 27 27 27 16 q 27 750 27 269 q 35 769 27 761 q 56 777 45 777 m 167 334 q 445 334 259 334 q 464 342 456 334 q 472 361 472 350 q 472 639 472 454 q 464 659 472 650 q 445 667 456 667 q 167 667 351 667 q 146 659 155 667 q 138 639 138 650 q 138 361 138 547 q 146 342 138 350 q 167 334 155 334 z "},"f":{"ha":610,"x_min":27,"x_max":583,"o":"m 361 639 q 361 27 361 435 q 353 8 361 16 q 334 0 345 0 q 278 0 315 0 q 258 8 266 0 q 250 27 250 16 q 250 639 250 232 q 241 659 250 650 q 222 667 233 667 q 56 667 167 667 q 35 675 45 667 q 27 694 27 684 q 27 750 27 713 q 35 769 27 761 q 56 777 45 777 q 222 777 111 777 q 241 785 233 777 q 250 806 250 793 q 250 972 250 861 q 258 991 250 983 q 278 1000 266 1000 q 556 1000 370 1000 q 575 991 567 1000 q 583 972 583 983 q 583 917 583 954 q 575 897 583 905 q 556 888 567 888 q 389 888 500 888 q 369 880 377 888 q 361 861 361 872 q 361 806 361 842 q 369 785 361 793 q 389 777 377 777 q 556 777 445 777 q 575 769 567 777 q 583 750 583 761 q 583 694 583 731 q 575 675 583 684 q 556 667 567 667 q 389 667 500 667 q 369 659 377 667 q 361 639 361 650 z "},"g":{"ha":610,"x_min":27,"x_max":583,"o":"m 56 777 q 556 777 222 777 q 575 769 567 777 q 583 750 583 761 q 583 -194 583 435 q 575 -214 583 -206 q 556 -222 567 -222 q 56 -222 389 -222 q 35 -214 45 -222 q 27 -194 27 -206 q 27 -138 27 -176 q 35 -119 27 -127 q 56 -111 45 -111 q 445 -111 186 -111 q 464 -103 456 -111 q 472 -83 472 -95 q 472 -27 472 -65 q 464 -8 472 -16 q 445 0 456 0 q 56 0 315 0 q 35 8 45 0 q 27 27 27 16 q 27 750 27 269 q 35 769 27 761 q 56 777 45 777 m 167 111 q 445 111 259 111 q 464 119 456 111 q 472 138 472 127 q 472 639 472 305 q 464 659 472 650 q 445 667 456 667 q 167 667 351 667 q 146 659 155 667 q 138 639 138 650 q 138 138 138 472 q 146 119 138 127 q 167 111 155 111 z "},"h":{"ha":610,"x_min":27,"x_max":583,"o":"m 167 777 q 556 777 296 777 q 575 769 567 777 q 583 750 583 761 q 583 27 583 509 q 575 8 583 16 q 556 0 567 0 q 500 0 537 0 q 480 8 488 0 q 472 27 472 16 q 472 639 472 232 q 464 659 472 650 q 445 667 456 667 q 167 667 351 667 q 146 659 155 667 q 138 639 138 650 q 138 27 138 435 q 130 8 138 16 q 111 0 122 0 q 56 0 92 0 q 35 8 45 0 q 27 27 27 16 q 27 972 27 343 q 35 991 27 983 q 56 1000 45 1000 q 111 1000 75 1000 q 130 991 122 1000 q 138 972 138 983 q 138 806 138 917 q 146 785 138 793 q 167 777 155 777 z "},"i":{"ha":167,"x_min":27,"x_max":138,"o":"m 138 972 q 138 917 138 954 q 130 897 138 905 q 111 888 122 888 q 56 888 92 888 q 35 897 45 888 q 27 917 27 905 q 27 972 27 935 q 35 991 27 983 q 56 1000 45 1000 q 111 1000 75 1000 q 130 991 122 1000 q 138 972 138 983 m 111 0 q 56 0 92 0 q 35 8 45 0 q 27 27 27 16 q 27 750 27 269 q 35 769 27 761 q 56 777 45 777 q 111 777 75 777 q 130 769 122 777 q 138 750 138 761 q 138 27 138 509 q 130 8 138 16 q 111 0 122 0 z "},"j":{"ha":361,"x_min":27,"x_max":334,"o":"m 250 777 q 305 777 269 777 q 326 769 317 777 q 334 750 334 761 q 334 -194 334 435 q 326 -214 334 -206 q 305 -222 317 -222 q 56 -222 222 -222 q 35 -214 45 -222 q 27 -194 27 -206 q 27 -138 27 -176 q 35 -119 27 -127 q 56 -111 45 -111 q 194 -111 102 -111 q 214 -103 206 -111 q 222 -83 222 -95 q 222 750 222 194 q 231 769 222 761 q 250 777 239 777 m 250 1000 q 305 1000 269 1000 q 326 991 317 1000 q 334 972 334 983 q 334 917 334 954 q 326 897 334 905 q 305 888 317 888 q 250 888 288 888 q 231 897 239 888 q 222 917 222 905 q 222 972 222 935 q 231 991 222 983 q 250 1000 239 1000 z "},"k":{"ha":612,"x_min":34,"x_max":576,"o":"m 564 103 q 575 83 574 95 q 566 61 575 69 q 524 18 552 46 q 506 9 515 11 q 487 15 495 9 q 168 262 381 98 q 153 262 161 266 q 145 250 145 258 q 145 27 145 176 q 137 8 145 16 q 118 0 129 0 q 62 0 99 0 q 42 8 50 0 q 34 27 34 16 q 34 972 34 343 q 42 991 34 983 q 62 1000 50 1000 q 118 1000 80 1000 q 137 991 129 1000 q 145 972 145 983 q 145 528 145 825 q 153 515 145 519 q 170 517 161 511 q 488 762 275 598 q 507 768 496 769 q 525 760 517 768 q 568 716 538 746 q 576 697 576 709 q 576 696 576 696 q 564 675 575 682 q 202 400 444 583 q 197 389 197 396 q 202 378 197 382 q 384 240 293 309 q 564 103 475 171 z "},"l":{"ha":167,"x_min":27,"x_max":138,"o":"m 138 972 q 138 27 138 658 q 130 8 138 16 q 111 0 122 0 q 56 0 92 0 q 35 8 45 0 q 27 27 27 16 q 27 972 27 343 q 35 991 27 983 q 56 1000 45 1000 q 111 1000 75 1000 q 130 991 122 1000 q 138 972 138 983 z "},"m":{"ha":1055,"x_min":27,"x_max":1028,"o":"m 56 777 q 1000 777 370 777 q 1020 769 1012 777 q 1028 750 1028 761 q 1028 27 1028 509 q 1020 8 1028 16 q 1000 0 1012 0 q 944 0 982 0 q 925 8 933 0 q 917 27 917 16 q 917 639 917 232 q 909 659 917 650 q 888 667 901 667 q 612 667 796 667 q 591 659 600 667 q 583 639 583 650 q 583 27 583 435 q 575 8 583 16 q 556 0 567 0 q 500 0 537 0 q 480 8 488 0 q 472 27 472 16 q 472 639 472 232 q 464 659 472 650 q 445 667 456 667 q 167 667 351 667 q 146 659 155 667 q 138 639 138 650 q 138 27 138 435 q 130 8 138 16 q 111 0 122 0 q 56 0 92 0 q 35 8 45 0 q 27 27 27 16 q 27 750 27 269 q 35 769 27 761 q 56 777 45 777 z "},"n":{"ha":610,"x_min":27,"x_max":583,"o":"m 472 27 q 472 639 472 232 q 464 659 472 650 q 445 667 456 667 q 167 667 351 667 q 146 659 155 667 q 138 639 138 650 q 138 27 138 435 q 130 8 138 16 q 111 0 122 0 q 56 0 92 0 q 35 8 45 0 q 27 27 27 16 q 27 750 27 269 q 35 769 27 761 q 56 777 45 777 q 556 777 222 777 q 575 769 567 777 q 583 750 583 761 q 583 27 583 509 q 575 8 583 16 q 556 0 567 0 q 500 0 537 0 q 480 8 488 0 q 472 27 472 16 z "},"o":{"ha":612,"x_min":27,"x_max":583,"o":"m 472 138 q 472 639 472 305 q 464 659 472 650 q 445 667 456 667 q 167 667 351 667 q 146 659 155 667 q 138 639 138 650 q 138 138 138 472 q 146 119 138 127 q 167 111 155 111 q 445 111 259 111 q 464 119 456 111 q 472 138 472 127 m 583 750 q 583 27 583 509 q 575 8 583 16 q 556 0 567 0 q 56 0 389 0 q 35 8 45 0 q 27 27 27 16 q 27 750 27 269 q 35 769 27 761 q 56 777 45 777 q 556 777 222 777 q 575 769 567 777 q 583 750 583 761 z "},"p":{"ha":610,"x_min":27,"x_max":583,"o":"m 556 0 q 167 0 426 0 q 146 -8 155 0 q 138 -27 138 -16 q 138 -194 138 -83 q 130 -214 138 -206 q 111 -222 122 -222 q 56 -222 92 -222 q 35 -214 45 -222 q 27 -194 27 -206 q 27 750 27 121 q 35 769 27 761 q 56 777 45 777 q 556 777 222 777 q 575 769 567 777 q 583 750 583 761 q 583 27 583 509 q 575 8 583 16 q 556 0 567 0 m 445 667 q 167 667 351 667 q 146 659 155 667 q 138 639 138 650 q 138 138 138 472 q 146 119 138 127 q 167 111 155 111 q 445 111 259 111 q 464 119 456 111 q 472 138 472 127 q 472 639 472 305 q 464 659 472 650 q 445 667 456 667 z "},"q":{"ha":610,"x_min":27,"x_max":583,"o":"m 445 0 q 56 0 315 0 q 35 8 45 0 q 27 27 27 16 q 27 750 27 269 q 35 769 27 761 q 56 777 45 777 q 556 777 222 777 q 575 769 567 777 q 583 750 583 761 q 583 -194 583 435 q 575 -214 583 -206 q 556 -222 567 -222 q 500 -222 537 -222 q 480 -214 488 -222 q 472 -194 472 -206 q 472 -27 472 -138 q 464 -8 472 -16 q 445 0 456 0 m 445 667 q 167 667 351 667 q 146 659 155 667 q 138 639 138 650 q 138 138 138 472 q 146 119 138 127 q 167 111 155 111 q 445 111 259 111 q 464 119 456 111 q 472 138 472 127 q 472 639 472 305 q 464 659 472 650 q 445 667 456 667 z "},"r":{"ha":610,"x_min":27,"x_max":583,"o":"m 556 667 q 167 667 426 667 q 146 659 155 667 q 138 639 138 650 q 138 27 138 435 q 130 8 138 16 q 111 0 122 0 q 56 0 92 0 q 35 8 45 0 q 27 27 27 16 q 27 750 27 269 q 35 769 27 761 q 56 777 45 777 q 556 777 222 777 q 575 769 567 777 q 583 750 583 761 q 583 694 583 731 q 575 675 583 684 q 556 667 567 667 z "},"s":{"ha":610,"x_min":27,"x_max":583,"o":"m 167 445 q 556 445 296 445 q 575 437 567 445 q 583 416 583 429 q 583 27 583 288 q 575 8 583 16 q 556 0 567 0 q 56 0 389 0 q 35 8 45 0 q 27 27 27 16 q 27 83 27 46 q 35 103 27 95 q 56 111 45 111 q 445 111 186 111 q 464 119 456 111 q 472 138 472 127 q 472 305 472 194 q 464 326 472 317 q 445 334 456 334 q 56 334 315 334 q 35 342 45 334 q 27 361 27 350 q 27 750 27 491 q 35 769 27 761 q 56 777 45 777 q 556 777 222 777 q 575 769 567 777 q 583 750 583 761 q 583 694 583 731 q 575 675 583 684 q 556 667 567 667 q 167 667 426 667 q 146 659 155 667 q 138 639 138 650 q 138 472 138 583 q 146 453 138 461 q 167 445 155 445 z "},"t":{"ha":610,"x_min":27,"x_max":583,"o":"m 583 750 q 583 694 583 731 q 575 675 583 684 q 556 667 567 667 q 389 667 500 667 q 369 659 377 667 q 361 639 361 650 q 361 27 361 435 q 353 8 361 16 q 334 0 345 0 q 278 0 315 0 q 258 8 266 0 q 250 27 250 16 q 250 639 250 232 q 241 659 250 650 q 222 667 233 667 q 56 667 167 667 q 35 675 45 667 q 27 694 27 684 q 27 750 27 713 q 35 769 27 761 q 56 777 45 777 q 222 777 111 777 q 241 785 233 777 q 250 806 250 793 q 250 972 250 861 q 258 991 250 983 q 278 1000 266 1000 q 334 1000 296 1000 q 353 991 345 1000 q 361 972 361 983 q 361 806 361 917 q 369 785 361 793 q 389 777 377 777 q 556 777 445 777 q 575 769 567 777 q 583 750 583 761 z "},"u":{"ha":610,"x_min":27,"x_max":583,"o":"m 138 750 q 138 138 138 547 q 146 119 138 127 q 167 111 155 111 q 445 111 259 111 q 464 119 456 111 q 472 138 472 127 q 472 750 472 343 q 480 769 472 761 q 500 777 488 777 q 556 777 518 777 q 575 769 567 777 q 583 750 583 761 q 583 27 583 509 q 575 8 583 16 q 556 0 567 0 q 56 0 389 0 q 35 8 45 0 q 27 27 27 16 q 27 750 27 269 q 35 769 27 761 q 56 777 45 777 q 111 777 75 777 q 130 769 122 777 q 138 750 138 761 z "},"v":{"ha":612,"x_min":37,"x_max":575,"o":"m 118 777 q 134 772 127 777 q 144 758 142 766 q 293 267 194 594 q 307 256 296 256 q 320 267 316 256 q 467 758 369 430 q 476 772 469 766 q 494 777 484 777 q 547 777 511 777 q 570 768 560 777 q 575 751 575 760 q 574 743 575 747 q 366 20 505 502 q 357 5 365 11 q 340 0 350 0 q 271 0 317 0 q 254 5 262 0 q 244 20 247 11 q 38 743 175 262 q 37 751 37 747 q 42 766 37 760 q 64 777 50 777 q 91 777 77 777 q 118 777 104 777 z "},"w":{"ha":1055,"x_min":27,"x_max":1028,"o":"m 1000 0 q 56 0 685 0 q 35 8 45 0 q 27 27 27 16 q 27 750 27 269 q 35 769 27 761 q 56 777 45 777 q 111 777 75 777 q 130 769 122 777 q 138 750 138 761 q 138 138 138 547 q 146 119 138 127 q 167 111 155 111 q 445 111 259 111 q 464 119 456 111 q 472 138 472 127 q 472 750 472 343 q 480 769 472 761 q 500 777 488 777 q 556 777 518 777 q 575 769 567 777 q 583 750 583 761 q 583 138 583 547 q 591 119 583 127 q 612 111 600 111 q 888 111 704 111 q 909 119 901 111 q 917 138 917 127 q 917 750 917 343 q 925 769 917 761 q 944 777 933 777 q 1000 777 963 777 q 1020 769 1012 777 q 1028 750 1028 761 q 1028 27 1028 509 q 1020 8 1028 16 q 1000 0 1012 0 z "},"x":{"ha":556,"x_min":16,"x_max":538,"o":"m 509 777 q 532 764 524 777 q 536 750 536 757 q 530 736 536 743 q 336 396 465 623 q 334 389 334 393 q 336 382 334 385 q 530 42 401 269 q 530 14 538 28 q 507 0 522 0 q 460 0 491 0 q 446 4 453 0 q 437 14 441 8 q 289 258 387 95 q 277 264 285 264 q 266 258 270 264 q 118 14 216 176 q 109 4 115 8 q 95 0 102 0 q 47 0 79 0 q 23 14 31 0 q 19 27 19 20 q 23 42 19 35 q 220 382 90 155 q 221 389 221 385 q 220 396 221 393 q 24 736 155 509 q 24 764 16 750 q 49 777 33 777 q 96 777 64 777 q 110 774 103 777 q 119 764 115 770 q 267 519 168 682 q 278 513 271 513 q 290 519 286 513 q 438 764 339 601 q 448 774 441 770 q 461 777 454 777 q 484 777 473 777 q 509 777 496 777 z "},"y":{"ha":610,"x_min":27,"x_max":583,"o":"m 445 0 q 56 0 315 0 q 35 8 45 0 q 27 27 27 16 q 27 750 27 269 q 35 769 27 761 q 56 777 45 777 q 111 777 75 777 q 130 769 122 777 q 138 750 138 761 q 138 138 138 547 q 146 119 138 127 q 167 111 155 111 q 445 111 259 111 q 464 119 456 111 q 472 138 472 127 q 472 750 472 343 q 480 769 472 761 q 500 777 488 777 q 556 777 518 777 q 575 769 567 777 q 583 750 583 761 q 583 -194 583 435 q 575 -214 583 -206 q 556 -222 567 -222 q 500 -222 537 -222 q 480 -214 488 -222 q 472 -194 472 -206 q 472 -27 472 -138 q 464 -8 472 -16 q 445 0 456 0 z "},"z":{"ha":612,"x_min":27,"x_max":583,"o":"m 27 103 q 28 111 27 107 q 34 118 30 115 q 401 644 156 293 q 403 659 407 652 q 391 667 399 667 q 56 667 278 667 q 35 675 45 667 q 27 694 27 684 q 27 750 27 713 q 35 769 27 761 q 56 777 45 777 q 556 777 222 777 q 575 769 567 777 q 583 750 583 761 q 583 675 583 726 q 582 667 583 671 q 578 659 581 663 q 210 133 456 484 q 209 118 205 126 q 221 111 213 111 q 556 111 332 111 q 575 103 567 111 q 583 83 583 95 q 583 27 583 65 q 575 8 583 16 q 556 0 567 0 q 56 0 389 0 q 35 8 45 0 q 27 27 27 16 q 27 65 27 46 q 27 103 27 84 z "},"{":{"ha":416,"x_min":28,"x_max":389,"o":"m 362 972 q 251 972 324 972 q 231 964 239 972 q 222 944 222 956 q 222 27 222 639 q 231 8 222 16 q 251 0 239 0 q 362 0 288 0 q 381 -8 373 0 q 389 -27 389 -16 q 389 -83 389 -46 q 381 -103 389 -95 q 362 -111 373 -111 q 140 -111 288 -111 q 119 -103 127 -111 q 111 -83 111 -95 q 111 416 111 83 q 103 437 111 429 q 84 445 95 445 q 56 445 75 445 q 37 453 45 445 q 28 472 28 461 q 28 528 28 491 q 37 548 28 540 q 56 556 45 556 q 84 556 65 556 q 103 564 95 556 q 111 583 111 572 q 111 1055 111 741 q 119 1076 111 1067 q 140 1084 127 1084 q 362 1084 213 1084 q 381 1076 373 1084 q 389 1055 389 1067 q 389 1000 389 1038 q 381 981 389 989 q 362 972 373 972 z "},"|":{"ha":167,"x_min":27,"x_max":138,"o":"m 56 1084 q 111 1084 75 1084 q 130 1078 122 1084 q 138 1063 138 1073 q 138 -175 138 651 q 130 -189 138 -183 q 111 -194 122 -194 q 56 -194 92 -194 q 35 -189 45 -194 q 27 -175 27 -183 q 27 1063 27 237 q 35 1078 27 1073 q 56 1084 45 1084 z "},"}":{"ha":416,"x_min":27,"x_max":388,"o":"m 27 1000 q 27 1055 27 1019 q 35 1076 27 1067 q 54 1084 43 1084 q 277 1084 129 1084 q 297 1076 289 1084 q 305 1055 305 1067 q 305 583 305 898 q 313 564 305 572 q 332 556 321 556 q 361 556 342 556 q 380 548 372 556 q 388 528 388 540 q 388 472 388 509 q 380 453 388 461 q 361 445 372 445 q 332 445 351 445 q 313 437 321 445 q 305 416 305 429 q 305 -83 305 250 q 297 -103 305 -95 q 277 -111 289 -111 q 54 -111 203 -111 q 35 -103 43 -111 q 27 -83 27 -95 q 27 -27 27 -65 q 35 -8 27 -16 q 54 0 43 0 q 165 0 92 0 q 186 8 178 0 q 194 27 194 16 q 194 944 194 334 q 186 964 194 956 q 165 972 178 972 q 54 972 129 972 q 35 981 43 972 q 27 1000 27 989 z "},"~":{"ha":388,"x_min":30,"x_max":359,"o":"m 254 952 q 274 972 260 959 q 293 981 281 981 q 312 972 304 981 q 351 933 326 959 q 359 914 359 926 q 351 894 359 903 q 252 796 319 861 q 233 788 245 788 q 214 796 222 788 q 175 834 201 808 q 156 844 168 844 q 136 834 144 844 q 117 815 129 829 q 98 807 110 807 q 77 815 85 807 q 39 854 65 829 q 30 873 30 861 q 39 892 30 884 q 137 991 72 926 q 156 1000 145 1000 q 176 991 168 1000 q 216 952 189 979 q 235 944 222 944 q 254 952 245 944 z "},"":{"ha":500,"x_min":27,"x_max":472,"o":"m 472 528 q 472 472 472 509 q 467 453 472 461 q 453 445 461 445 q 47 445 317 445 q 34 453 39 445 q 27 472 27 461 q 27 528 27 491 q 34 548 27 540 q 47 556 39 556 q 453 556 182 556 q 467 548 461 556 q 472 528 472 540 z "},"":{"ha":499,"x_min":27,"x_max":472,"o":"m 472 528 q 472 472 472 509 q 467 453 472 461 q 453 445 461 445 q 47 445 317 445 q 34 453 39 445 q 27 472 27 461 q 27 528 27 491 q 34 548 27 540 q 47 556 39 556 q 453 556 182 556 q 467 548 461 556 q 472 528 472 540 z "},"":{"ha":500,"x_min":27,"x_max":472,"o":"m 472 528 q 472 472 472 509 q 467 453 472 461 q 453 445 461 445 q 47 445 317 445 q 34 453 39 445 q 27 472 27 461 q 27 528 27 491 q 34 548 27 540 q 47 556 39 556 q 453 556 182 556 q 467 548 461 556 q 472 528 472 540 z "},"":{"ha":612,"x_min":30,"x_max":583,"o":"m 583 528 q 583 472 583 509 q 578 453 583 461 q 564 445 572 445 q 49 445 392 445 q 35 453 41 445 q 30 472 30 461 q 30 528 30 491 q 35 548 30 540 q 49 556 41 556 q 564 556 220 556 q 578 548 572 556 q 583 528 583 540 z "},"":{"ha":1057,"x_min":27,"x_max":1028,"o":"m 1028 528 q 1028 472 1028 509 q 1023 453 1028 461 q 1008 445 1017 445 q 47 445 688 445 q 34 453 39 445 q 27 472 27 461 q 27 528 27 491 q 34 548 27 540 q 47 556 39 556 q 1008 556 368 556 q 1023 548 1017 556 q 1028 528 1028 540 z "},"":{"ha":222,"x_min":27,"x_max":201,"o":"m 102 690 q 47 704 83 696 q 30 718 35 708 q 27 731 27 724 q 27 738 27 734 q 92 979 49 818 q 104 997 95 991 q 118 1000 111 1001 q 125 1000 122 1000 q 179 985 142 994 q 197 972 191 982 q 201 959 201 966 q 199 952 201 955 q 134 711 178 871 q 122 693 132 699 q 109 689 115 689 q 102 690 104 689 z "},"":{"ha":361,"x_min":23,"x_max":336,"o":"m 183 985 q 237 998 201 990 q 244 1000 240 1000 q 259 996 251 1000 q 270 979 269 990 q 335 738 292 899 q 336 731 336 734 q 332 716 336 723 q 316 704 327 707 q 262 690 298 700 q 255 689 259 689 q 240 693 247 689 q 229 709 231 700 q 163 952 208 791 q 167 972 160 963 q 183 985 172 983 m 43 985 q 98 998 62 990 q 119 996 110 1002 q 132 979 129 990 q 197 738 153 899 q 194 716 199 726 q 178 704 187 707 q 123 690 159 700 q 102 693 111 688 q 90 709 92 700 q 24 952 68 791 q 23 959 23 955 q 27 972 23 966 q 43 985 34 983 z "},"":{"ha":361,"x_min":20,"x_max":334,"o":"m 95 690 q 41 704 77 694 q 24 718 30 708 q 20 731 20 724 q 22 738 20 734 q 87 979 43 818 q 100 997 90 990 q 114 1000 106 1000 q 121 998 117 1000 q 175 985 138 994 q 191 972 186 982 q 194 952 197 962 q 129 709 172 871 q 115 693 125 699 q 102 689 109 689 q 95 690 99 689 m 235 690 q 180 704 216 694 q 163 718 168 708 q 160 738 157 727 q 225 979 182 818 q 239 997 229 990 q 259 998 248 1002 q 313 985 277 994 q 330 972 324 982 q 334 959 334 966 q 332 952 334 955 q 267 709 311 871 q 255 693 264 699 q 235 690 244 688 z "}}}
